<svg width="100" height="100" viewBox="0 0 100 100" fill="none" xmlns="http://www.w3.org/2000/svg">
<path d="M33.3333 38.3838C33.3333 35.5945 35.5945 33.3333 38.3838 33.3333H94.9495C97.7388 33.3333 100 35.5945 100 38.3838V94.9495C100 97.7388 97.7388 100 94.9495 100H38.3838C35.5945 100 33.3333 97.7388 33.3333 94.9495V38.3838Z" fill="#FF5D62"/>
<path d="M5.0505 0C2.26119 0 0 2.26119 0 5.0505V61.6162C0 64.4055 2.26119 66.6667 5.0505 66.6667H28.2828V33.3333C28.2828 30.544 30.544 28.2828 33.3333 28.2828H66.6667V5.0505C66.6667 2.26119 64.4055 0 61.6162 0H5.0505Z" fill="#E46876"/>
</svg>
