<svg width="100" height="100" viewBox="0 0 100 100" fill="none" xmlns="http://www.w3.org/2000/svg">
<path d="M0 4.71698C0 2.11186 2.23858 0 5 0H95C97.7614 0 100 2.11186 100 4.71698V25.4717C100 28.0768 97.7614 30.1887 95 30.1887H5C2.23858 30.1887 0 28.0768 0 25.4717V4.71698Z" fill="#7AA89F"/>
<path d="M0 39.6226C0 37.0175 2.23858 34.9057 5 34.9057H95C97.7614 34.9057 100 37.0175 100 39.6226V60.3774C100 62.9825 97.7614 65.0943 95 65.0943H5C2.23858 65.0943 0 62.9825 0 60.3774V39.6226Z" fill="#7AA89F"/>
<path d="M0 74.5283C0 71.9232 2.23858 69.8113 5 69.8113H95C97.7614 69.8113 100 71.9232 100 74.5283V95.283C100 97.8881 97.7614 100 95 100H5C2.23858 100 0 97.8881 0 95.283V74.5283Z" fill="#7AA89F"/>
</svg>
