<svg width="100" height="100" viewBox="0 0 100 100" fill="none" xmlns="http://www.w3.org/2000/svg">
<path d="M29.9065 4.97513C29.9065 2.22744 31.9987 0 34.5794 0H65.4206C68.0013 0 70.0935 2.22744 70.0935 4.97512V94.5274C70.0935 97.275 68.0013 99.5025 65.4206 99.5025H34.5794C31.9987 99.5025 29.9065 97.275 29.9065 94.5274V4.97513Z" fill="#D27E99"/>
<path d="M0 57.7114C0 54.9638 2.09213 52.7363 4.6729 52.7363H18.6916C21.2724 52.7363 23.3645 54.9638 23.3645 57.7114V95.0249C23.3645 97.7726 21.2724 100 18.6916 100H4.6729C2.09213 100 0 97.7726 0 95.0249V57.7114Z" fill="#D27E99"/>
<path d="M0 4.97513C0 2.22744 2.09213 0 4.6729 0H18.6916C21.2724 0 23.3645 2.22744 23.3645 4.97512V42.2886C23.3645 45.0362 21.2724 47.2637 18.6916 47.2637H4.6729C2.09213 47.2637 0 45.0362 0 42.2886V4.97513Z" fill="#D27E99"/>
<path d="M76.6355 4.97512C76.6355 2.22744 78.7276 0 81.3084 0H95.3271C97.9079 0 100 2.22744 100 4.97512V24.8756C100 27.6233 97.9079 29.8507 95.3271 29.8507H81.3084C78.7276 29.8507 76.6355 27.6233 76.6355 24.8756V4.97512Z" fill="#D27E99"/>
<path d="M76.6355 74.6269C76.6355 71.8792 78.7276 69.6517 81.3084 69.6517H95.3271C97.9079 69.6517 100 71.8792 100 74.6269V94.5274C100 97.275 97.9079 99.5025 95.3271 99.5025H81.3084C78.7276 99.5025 76.6355 97.275 76.6355 94.5274V74.6269Z" fill="#D27E99"/>
<path d="M76.6355 39.801C76.6355 37.0533 78.7276 34.8259 81.3084 34.8259H95.3271C97.9079 34.8259 100 37.0533 100 39.801V59.7015C100 62.4492 97.9079 64.6766 95.3271 64.6766H81.3084C78.7276 64.6766 76.6355 62.4492 76.6355 59.7015V39.801Z" fill="#D27E99"/>
</svg>
