<svg width="100" height="100" viewBox="0 0 100 100" fill="none" xmlns="http://www.w3.org/2000/svg">
<path d="M0 5C0 2.23858 2.18398 0 4.87805 0H42.439C45.1331 0 47.3171 2.23858 47.3171 5V95C47.3171 97.7614 45.1331 100 42.439 100H4.87805C2.18398 100 0 97.7614 0 95V5Z" fill="#DCD7BA"/>
<path d="M52.6829 5C52.6829 2.23858 54.8669 0 57.561 0H95.122C97.816 0 100 2.23858 100 5V25C100 27.7614 97.816 30 95.122 30H57.561C54.8669 30 52.6829 27.7614 52.6829 25V5Z" fill="#DCD7BA"/>
<path d="M52.6829 40C52.6829 37.2386 54.8669 35 57.561 35H95.122C97.816 35 100 37.2386 100 40V60C100 62.7614 97.816 65 95.122 65H57.561C54.8669 65 52.6829 62.7614 52.6829 60V40Z" fill="#DCD7BA"/>
<path d="M52.6829 75C52.6829 72.2386 54.8669 70 57.561 70H95.122C97.816 70 100 72.2386 100 75V95C100 97.7614 97.816 100 95.122 100H57.561C54.8669 100 52.6829 97.7614 52.6829 95V75Z" fill="#DCD7BA"/>
</svg>
